<svg width="92" height="92" viewBox="0 0 92 92" fill="none" xmlns="http://www.w3.org/2000/svg">
<path d="M46 89C69.7482 89 89 69.7482 89 46C89 22.2518 69.7482 3 46 3C22.2518 3 3 22.2518 3 46C3 69.7482 22.2518 89 46 89Z" fill="#ECE7FA" stroke="white" stroke-width="6"/>
<mask id="mask0" mask-type="alpha" maskUnits="userSpaceOnUse" x="0" y="0" width="92" height="92">
<path d="M46 89C69.7482 89 89 69.7482 89 46C89 22.2518 69.7482 3 46 3C22.2518 3 3 22.2518 3 46C3 69.7482 22.2518 89 46 89Z" fill="white" stroke="white" stroke-width="6"/>
</mask>
<g mask="url(#mask0)">
<path d="M60.3408 29.538V52.5921L48.8135 64.1194V41.0647L51.389 38.4892L52.5446 37.3336L59.1859 30.6929L60.3408 29.538Z" fill="#1B80DB"/>
<path d="M43.3166 25.7441C33.6066 25.7441 25.7373 33.6135 25.7373 43.3234V67.2559H49.6704C59.3771 67.2559 67.2458 59.3872 67.2458 49.6804V25.7441H43.3166ZM60.3407 52.592L48.8134 64.1194V56.3231L47.6584 57.4774L41.0171 64.1194V55.7453L32.643 64.1194V41.0646L44.1704 29.5379V37.9113L52.5445 29.5379V37.3336L60.3407 29.5379V52.592Z" fill="#172C50"/>
<path d="M52.5447 35.5187V37.3335L51.3891 38.4891L48.8136 41.0646V56.3224L47.6587 57.4779V40.4047L52.5447 35.5187Z" fill="#B53918"/>
<path d="M52.5445 29.538V35.5188L47.6584 40.4048V57.4781L41.0171 64.1194V41.0647L44.1704 37.9114L52.5445 29.538Z" fill="#F4551E"/>
<path d="M44.1702 36.0959V37.9114L41.0169 41.0647V55.7453L39.8613 56.9009V40.4048L44.1702 36.0959Z" fill="#AA1161"/>
<path d="M44.1709 29.538V36.0959L39.8621 40.4048V56.9009L32.6436 64.1194V41.0647L44.1709 29.538Z" fill="#ED018C"/>
</g>
</svg>
